<?xml version="1.0" encoding="UTF-8"?>
<mxfile host="app.diagrams.net">
  <diagram name="Modelo Conceitual Pizzaria" id="modelo-conceitual-pizzaria">
    <!-- Entidades -->
    <mxCell id="cliente" value="Cliente\n- Nome\n- CPF\n- Telefone\n- Endereço" style="shape=rectangle;whiteSpace=wrap;html=1;" vertex="1" parent="1">
      <mxGeometry x="20" y="20" width="180" height="100" as="geometry"/>
    </mxCell>

    <mxCell id="pedido" value="Pedido\n- Código\n- Data\n- Hora\n- Valor Total" style="shape=rectangle;whiteSpace=wrap;html=1;" vertex="1" parent="1">
      <mxGeometry x="300" y="20" width="180" height="100" as="geometry"/>
    </mxCell>

    <mxCell id="item_pedido" value="Item Pedido\n- Quantidade\n- Observação" style="shape=rectangle;whiteSpace=wrap;html=1;" vertex="1" parent="1">
      <mxGeometry x="580" y="20" width="180" height="80" as="geometry"/>
    </mxCell>

    <mxCell id="produto" value="Produto\n- Nome\n- Tamanho\n- Preço\n- Tempo Preparo" style="shape=rectangle;whiteSpace=wrap;html=1;" vertex="1" parent="1">
      <mxGeometry x="860" y="20" width="200" height="100" as="geometry"/>
    </mxCell>

    <mxCell id="tipo_produto" value="Tipo Produto\n- Nome Tipo" style="shape=rectangle;whiteSpace=wrap;html=1;" vertex="1" parent="1">
      <mxGeometry x="1080" y="20" width="140" height="60" as="geometry"/>
    </mxCell>

    <mxCell id="ingrediente" value="Ingrediente\n- Nome\n- Tipo\n- Unidade de Medida" style="shape=rectangle;whiteSpace=wrap;html=1;" vertex="1" parent="1">
      <mxGeometry x="860" y="140" width="200" height="80" as="geometry"/>
    </mxCell>

    <mxCell id="insumo" value="Insumo\n- Nome\n- Tipo\n- Unidade\n- Custo Unitário" style="shape=rectangle;whiteSpace=wrap;html=1;" vertex="1" parent="1">
      <mxGeometry x="1080" y="140" width="180" height="80" as="geometry"/>
    </mxCell>

    <mxCell id="estoque" value="Estoque\n- Código\n- Local\n- Quantidade Atual" style="shape=rectangle;whiteSpace=wrap;html=1;" vertex="1" parent="1">
      <mxGeometry x="1300" y="140" width="200" height="80" as="geometry"/>
    </mxCell>

    <mxCell id="mov_estoque" value="Movimentação Estoque\n- Data\n- Tipo\n- Quantidade" style="shape=rectangle;whiteSpace=wrap;html=1;" vertex="1" parent="1">
      <mxGeometry x="1520" y="140" width="200" height="80" as="geometry"/>
    </mxCell>

    <mxCell id="fornecedor" value="Fornecedor\n- Nome\n- CNPJ\n- Telefone\n- Endereço" style="shape=rectangle;whiteSpace=wrap;html=1;" vertex="1" parent="1">
      <mxGeometry x="1740" y="140" width="200" height="80" as="geometry"/>
    </mxCell>

    <mxCell id="funcionario" value="Funcionário\n- Nome\n- CPF\n- Cargo\n- Salário" style="shape=rectangle;whiteSpace=wrap;html=1;" vertex="1" parent="1">
      <mxGeometry x="300" y="160" width="180" height="100" as="geometry"/>
    </mxCell>

    <mxCell id="setor" value="Setor\n- Nome" style="shape=rectangle;whiteSpace=wrap;html=1;" vertex="1" parent="1">
      <mxGeometry x="300" y="280" width="140" height="60" as="geometry"/>
    </mxCell>

    <mxCell id="folha_pagamento" value="Folha Pagamento\n- Mês\n- Ano\n- Valor Pago\n- Data Pagamento" style="shape=rectangle;whiteSpace=wrap;html=1;" vertex="1" parent="1">
      <mxGeometry x="500" y="280" width="220" height="80" as="geometry"/>
    </mxCell>

    <!-- Comanda -->
    <mxCell id="comanda" value="Comanda\n- Código\n- Status\n- Data Abertura\n- Data Fechamento" style="shape=rectangle;whiteSpace=wrap;html=1;" vertex="1" parent="1">
      <mxGeometry x="20" y="420" width="200" height="100" as="geometry"/>
    </mxCell>

    <!-- Mesa -->
    <mxCell id="mesa" value="Mesa\n- Número\n- Capacidade" style="shape=rectangle;whiteSpace=wrap;html=1;" vertex="1" parent="1">
      <mxGeometry x="240" y="420" width="140" height="60" as="geometry"/>
    </mxCell>

    <!-- Reserva -->
    <mxCell id="reserva" value="Reserva\n- Data\n- Hora\n- Observação" style="shape=rectangle;whiteSpace=wrap;html=1;" vertex="1" parent="1">
      <mxGeometry x="400" y="420" width="160" height="80" as="geometry"/>
    </mxCell>

    <!-- Atendimento -->
    <mxCell id="atendimento" value="Atendimento\n- Código\n- Data/Hora\n- Tipo" style="shape=rectangle;whiteSpace=wrap;html=1;" vertex="1" parent="1">
      <mxGeometry x="580" y="420" width="180" height="80" as="geometry"/>
    </mxCell>

    <!-- Fila Atendimento -->
    <mxCell id="fila_atendimento" value="Fila Atendimento\n- Prioridade\n- Tempo Espera" style="shape=rectangle;whiteSpace=wrap;html=1;" vertex="1" parent="1">
      <mxGeometry x="780" y="420" width="180" height="80" as="geometry"/>
    </mxCell>

    <!-- Sistema Atendimento -->
    <mxCell id="sistema_atendimento" value="Sistema Atendimento\n- Tipo\n- Status" style="shape=rectangle;whiteSpace=wrap;html=1;" vertex="1" parent="1">
      <mxGeometry x="980" y="420" width="180" height="80" as="geometry"/>
    </mxCell>

    <!-- Cozinha -->
    <mxCell id="cozinha" value="Cozinha\n- Nome Setor\n- Status" style="shape=rectangle;whiteSpace=wrap;html=1;" vertex="1" parent="1">
      <mxGeometry x="1180" y="420" width="160" height="80" as="geometry"/>
    </mxCell>

    <!-- Sistema Cozinha -->
    <mxCell id="sistema_cozinha" value="Sistema Cozinha\n- Tipo\n- Status" style="shape=rectangle;whiteSpace=wrap;html=1;" vertex="1" parent="1">
      <mxGeometry x="1360" y="420" width="180" height="80" as="geometry"/>
    </mxCell>

    <!-- Lançamento Financeiro -->
    <mxCell id="lancamento_financeiro" value="Lançamento Financeiro\n- Tipo\n- Valor\n- Data\n- Descrição" style="shape=rectangle;whiteSpace=wrap;html=1;" vertex="1" parent="1">
      <mxGeometry x="1540" y="420" width="220" height="100" as="geometry"/>
    </mxCell>

    <!-- Forma de Pagamento -->
    <mxCell id="forma_pagamento" value="Forma de Pagamento\n- Tipo\n- Parcelado" style="shape=rectangle;whiteSpace=wrap;html=1;" vertex="1" parent="1">
      <mxGeometry x="1780" y="420" width="180" height="60" as="geometry"/>
    </mxCell>

    <!-- Histórico de Custo -->
    <mxCell id="historico_custo" value="Histórico de Custo\n- Data\n- Valor Custo Total" style="shape=rectangle;whiteSpace=wrap;html=1;" vertex="1" parent="1">
      <mxGeometry x="1780" y="500" width="200" height="60" as="geometry"/>
    </mxCell>

    <!-- Promoção -->
    <mxCell id="promocao" value="Promoção\n- Nome\n- Desconto\n- Data Início\n- Data Fim" style="shape=rectangle;whiteSpace=wrap;html=1;" vertex="1" parent="1">
      <mxGeometry x="1540" y="540" width="220" height="80" as="geometry"/>
    </mxCell>

    <!-- Entregador -->
    <mxCell id="entregador" value="Entregador\n- Nome\n- Veículo\n- Telefone" style="shape=rectangle;whiteSpace=wrap;html=1;" vertex="1" parent="1">
      <mxGeometry x="1360" y="540" width="180" height="80" as="geometry"/>
    </mxCell>

    <!-- Localização -->
    <mxCell id="localizacao" value="Localização\n- Rua\n- Número\n- Bairro\n- Cidade" style="shape=rectangle;whiteSpace=wrap;html=1;" vertex="1" parent="1">
      <mxGeometry x="1180" y="540" width="160" height="100" as="geometry"/>
    </mxCell>

    <!-- Horário de Funcionamento -->
    <mxCell id="horario_func" value="Horário Funcionamento\n- Dia Semana\n- Abertura\n- Fechamento" style="shape=rectangle;whiteSpace=wrap;html=1;" vertex="1" parent="1">
      <mxGeometry x="980" y="540" width="180" height="80" as="geometry"/>
    </mxCell>

    <!-- Horário de Trabalho -->
    <mxCell id="horario_trabalho" value="Horário Trabalho\n- Dia\n- Entrada\n- Saída" style="shape=rectangle;whiteSpace=wrap;html=1;" vertex="1" parent="1">
      <mxGeometry x="780" y="540" width="180" height="80" as="geometry"/>
    </mxCell>

    <!-- Relógio de Ponto -->
    <mxCell id="relogio_ponto" value="Relógio de Ponto\n- Data\n- Hora Entrada\n- Hora Saída" style="shape=rectangle;whiteSpace=wrap;html=1;" vertex="1" parent="1">
      <mxGeometry x="580" y="540" width="180" height="80" as="geometry"/>
    </mxCell>

    <!-- Relacionamentos -->
    <mxCell id="rel_cliente_pedido" style="edgeStyle=orthogonalEdgeStyle;rounded=0;orthogonal=1;jettySize=auto;html=1;exitX=0.5;exitY=1;exitDx=0;exitDy=0;" edge="1" parent="1" source="cliente" target="pedido"/>
    <mxCell id="rel_pedido_item" style="edgeStyle=orthogonalEdgeStyle;rounded=0;orthogonal=1;jettySize=auto;html=1;exitX=0.5;exitY=1;exitDx=0;exitDy=0;" edge="1" parent="1" source="pedido" target="item_pedido"/>
    <mxCell id="rel_item_produto" style="edgeStyle=orthogonalEdgeStyle;rounded=0;orthogonal=1;jettySize=auto;html=1;exitX=0.5;exitY=1;exitDx=0;exitDy=0;" edge="1" parent="1" source="item_pedido" target="produto"/>
    <mxCell id="rel_produto_ingrediente" style="edgeStyle=orthogonalEdgeStyle;rounded=0;orthogonal=1;jettySize=auto;html=1;exitX=0.5;exitY=1;exitDx=0;exitDy=0;" edge="1" parent="1" source="produto" target="ingrediente"/>
    <mxCell id="rel_ingrediente_insumo" style="edgeStyle=orthogonalEdgeStyle;rounded=0;orthogonal=1;jettySize=auto;html=1;exitX=0.5;exitY=1;exitDx=0;exitDy=0;" edge="1" parent="1" source="ingrediente" target="insumo"/>
    <mxCell id="rel_estoque_mov" style="edgeStyle=orthogonalEdgeStyle;rounded=0;orthogonal=1;jettySize=auto;html=1;exitX=0.5;exitY=1;exitDx=0;exitDy=0;" edge="1" parent="1" source="estoque" target="mov_estoque"/>
    <mxCell id="rel_funcionario_setor" style="edgeStyle=orthogonalEdgeStyle;rounded=0;orthogonal=1;jettySize=auto;html=1;exitX=0.5;exitY=1;exitDx=0;exitDy=0;" edge="1" parent="1" source="funcionario" target="setor"/>
    <mxCell id="rel_funcionario_folha" style="edgeStyle=orthogonalEdgeStyle;rounded=0;orthogonal=1;jettySize=auto;html=1;exitX=0.5;exitY=1;exitDx=0;exitDy=0;" edge="1" parent="1" source="funcionario" target="folha_pagamento"/>
    <mxCell id="rel_comanda_atendimento" style="edgeStyle=orthogonalEdgeStyle;rounded=0;orthogonal=1;jettySize=auto;html=1;exitX=0.5;exitY=1;exitDx=0;exitDy=0;" edge="1" parent="1" source="comanda" target="atendimento"/>
    <mxCell id="rel_mesa_reserva" style="edgeStyle=orthogonalEdgeStyle;rounded=0;orthogonal=1;jettySize=auto;html=1;exitX=0.5;exitY=1;exitDx=0;exitDy=0;" edge="1" parent="1" source="mesa" target="reserva"/>
    <mxCell id="rel_reserva_atendimento" style="edgeStyle=orthogonalEdgeStyle;rounded=0;orthogonal=1;jettySize=auto;html=1;exitX=0.5;exitY=1;exitDx=0;exitDy=0;" edge="1" parent="1" source="reserva" target="atendimento"/>
    <mxCell id="rel_pedido_pagamento" style="edgeStyle=orthogonalEdgeStyle;rounded=0;orthogonal=1;jettySize=auto;html=1;exitX=0.5;exitY=1;exitDx=0;exitDy=0;" edge="1" parent="1" source="pedido" target="forma_pagamento"/>
    <mxCell id="rel_produto_promocao" style="edgeStyle=orthogonalEdgeStyle;rounded=0;orthogonal=1;jettySize=auto;html=1;exitX=0.5;exitY=1;exitDx=0;exitDy=0;" edge="1" parent="1" source="produto" target="promocao"/>
  </diagram>
</mxfile>
